<svg xmlns="http://www.w3.org/2000/svg" version="1.1" viewBox="-5.0 -10.0 110.0 135.0">
 <defs>
  <linearGradient id="grad-light" x1="0%" y1="0%" x2="100%" y2="100%">
   <stop offset="0%" style="stop-color:#4F46E5"/>
   <stop offset="100%" style="stop-color:#818CF8"/>
  </linearGradient>
 </defs>
 <g fill="url(#grad-light)">
  <path d="m89.156 65.648c0.79688-0.6875 1.0547-1.75 0.66016-2.7031-0.44141-1.0586-1.5469-1.7109-2.7383-1.6094-4.3008 0.33203-8.9922-1.0312-13.039-3.7656 4.8516-5.2148 7.5078-11.812 7.5078-18.695 0-15.922-14.152-28.875-31.547-28.875s-31.547 12.953-31.547 28.875c0 6.8828 2.6562 13.48 7.5078 18.695-4.0391 2.7344-8.7227 4.1016-13.039 3.7656-1.2031-0.097657-2.2969 0.55469-2.7383 1.6094-0.39844 0.95313-0.14062 2.0156 0.69531 2.7344 5.2969 4.5391 14.016 4.4805 21.398 0.19531-2.5625 4.4062-6.5586 7.6797-11.09 8.9766-1.1289 0.32031-1.875 1.2422-1.9062 2.3477-0.03125 1.0742 0.64453 2.0117 1.7656 2.4023 6.5234 2.25 14.164-0.50391 19.23-6.5078-0.71094 2.5742-2.0703 6.1328-4.6719 10.238-0.60156 0.95312-0.75391 2.0547-0.42969 3.1094 0.33984 1.0938 1.1758 2 2.293 2.4805 1.6641 0.71875 3.2344 1.0781 4.668 1.0781 1.4805 0 2.8203-0.38281 3.9766-1.1406 1.7812-1.1758 3.0781-3.2344 3.8867-6.1406 0.80859 2.9062 2.1055 4.9648 3.8906 6.1406 1.1562 0.75781 2.4922 1.1406 3.9727 1.1406 1.4336 0 3.0039-0.35938 4.6641-1.0703 1.1172-0.48047 1.9531-1.3867 2.293-2.4805 0.32813-1.0547 0.17188-2.1602-0.42969-3.1094-2.6016-4.1094-3.9609-7.6641-4.6719-10.238 5.0664 6.0078 12.715 8.7578 19.277 6.4922 1.0742-0.375 1.75-1.3086 1.7188-2.3828-0.03125-1.1016-0.78125-2.0234-1.9062-2.3438-4.1055-1.1758-8.1719-4.5586-10.871-8.8594 3.5977 2.0391 7.4961 3.0859 11.16 3.0859 3.8086-0.007812 7.3672-1.1367 10.059-3.4453zm-23.262-3.4258c-0.066406-0.050781-0.14062-0.074218-0.21094-0.10938-0.035156-0.019531-0.066406-0.035156-0.10156-0.050781-0.039062-0.011719-0.078125-0.019531-0.11719-0.027344-0.19531-0.054687-0.40234-0.066406-0.59766 0.011719-0.28906 0.11719-0.47266 0.37891-0.55078 0.67188-0.007812 0.023438-0.007812 0.042969-0.011718 0.066406-0.019532 0.10156-0.03125 0.19922-0.023438 0.30469 0.003906 0.027344 0.011719 0.054687 0.015625 0.082031 0.011719 0.078125 0.015625 0.15625 0.042969 0.23047 0.011718 0.027344 0.023437 0.054687 0.039062 0.082031 2.6953 6.4375 8.1367 11.648 13.883 13.297 0.41406 0.11719 0.45312 0.39844 0.45703 0.48047 0.003906 0.19531-0.12891 0.35156-0.41797 0.45312-6.8906 2.3789-15.262-1.6914-19.477-9.4727-0.21875-0.40234-0.68359-0.60938-1.125-0.49219-0.44531 0.11328-0.75391 0.51172-0.75391 0.96875 0 0.26953 0.074219 6.7031 5.7617 15.688 0.28516 0.44922 0.35938 0.96484 0.20703 1.4492-0.16406 0.53516-0.59375 0.98438-1.1719 1.2344-1.9023 0.82031-4.6172 1.5-6.75 0.097656-2.6094-1.7188-3.9883-6.3203-3.9883-13.312 0-0.55469-0.44531-1-1-1-0.55469 0-1 0.44531-1 1 0 6.9922-1.3789 11.598-3.9883 13.312-2.1289 1.3984-4.8438 0.71875-6.75-0.097656-0.57812-0.25-1.0078-0.69922-1.1719-1.2344-0.14844-0.48438-0.078125-1 0.20703-1.4492 5.6875-8.9844 5.7617-15.418 5.7617-15.688 0-0.45703-0.30859-0.85938-0.75391-0.96875-0.44141-0.11328-0.90625 0.089844-1.125 0.49219-4.2148 7.7812-12.594 11.852-19.52 9.457-0.25-0.085938-0.38281-0.24219-0.375-0.4375 0.003907-0.082031 0.042969-0.35938 0.46094-0.48047 5.9609-1.7031 11.07-6.4609 13.672-12.727 0.0625-0.14844 0.11719-0.29688 0.17188-0.44922l0.078125-0.21875c0.046875-0.125 0.070313-0.28516 0.0625-0.41797-0.011719-0.37891-0.23438-0.71484-0.57812-0.875s-0.74609-0.10938-1.043 0.125c-7.1562 5.6836-16.582 6.5156-21.953 1.9141-0.14844-0.12891-0.1875-0.25781-0.12109-0.41797 0.089844-0.21484 0.35156-0.42188 0.73828-0.38672 5.125 0.39844 10.695-1.3594 15.32-4.8164 0.23438-0.17578 0.37891-0.44141 0.39844-0.73047 0.019531-0.28906-0.085938-0.57422-0.29297-0.78125-4.9922-4.9609-7.7422-11.398-7.7422-18.129-0.007813-14.812 13.246-26.871 29.539-26.871s29.547 12.059 29.547 26.875c0 6.7266-2.75 13.164-7.7422 18.129-0.20703 0.20312-0.3125 0.48828-0.29297 0.78125 0.019531 0.28906 0.16406 0.55469 0.39844 0.73047 4.6211 3.4609 10.203 5.2109 15.32 4.8164 0.38281-0.03125 0.64844 0.17188 0.73828 0.38672 0.066406 0.16016 0.03125 0.28906-0.15234 0.44531-5.3398 4.5742-14.766 3.7383-21.922-1.9414z"/>
  <path d="m61.035 33.961c-2.8438 0-5.1523 2.1406-5.1523 4.7656 0 0.55469 0.44531 1 1 1 0.55469 0 1-0.44531 1-1 0-1.5234 1.4141-2.7656 3.1523-2.7656 1.7383 0 3.1523 1.2422 3.1523 2.7656 0 0.55469 0.44531 1 1 1s1-0.44531 1-1c0-2.625-2.3125-4.7656-5.1523-4.7656z"/>
  <path d="m38.961 33.961c-2.8398 0-5.1523 2.1406-5.1523 4.7656 0 0.55469 0.44531 1 1 1 0.55469 0 1-0.44531 1-1 0-1.5234 1.4141-2.7656 3.1523-2.7656 1.7383 0 3.1523 1.2422 3.1523 2.7656 0 0.55469 0.44531 1 1 1 0.55469 0 1-0.44531 1-1 0.003907-2.625-2.3086-4.7656-5.1523-4.7656z"/>
 </g>
</svg>
